<svg xmlns="http://www.w3.org/2000/svg" width="187" height="145" id="loading_icon" style="position: absolute; top: 50%; left: 50%; transform: translate(-50%, -50%);"><style> .gear { transform-origin: 30px 30px; transform-box: fill-box; } #wheel_1 .gear, #wheel_3 .gear { transform: rotate(-35deg); animation: rotate_right 2.4s infinite; } #wheel_2 .gear, #wheel_4 .gear { transform: rotate(13deg); animation: rotate_left 2.4s infinite; } @keyframes rotate_right { from { transform: rotate(-35deg) } to { transform: rotate(325deg) } } @keyframes rotate_left { from { transform: rotate(13deg) } to { transform: rotate(-347deg) } } </style><g fill="#445DF7"><g id="wheel_1" transform="translate(0 42)"><path class="gear" d="M60 34.565v-9.123h-7.218a23.08 23.08 0 0 0-3.448-8.316l5.103-5.102-6.455-6.453-5.107 5.102a23.09 23.09 0 0 0-8.317-3.446V.003h-9.121v7.216a23.082 23.082 0 0 0-8.317 3.447l-5.103-5.102-6.456 6.461 5.103 5.102a23.09 23.09 0 0 0-3.447 8.315H.003v9.123h7.214a23.068 23.068 0 0 0 3.448 8.315l-5.103 5.102 6.455 6.453 5.103-5.102a23.093 23.093 0 0 0 8.317 3.447v7.216h9.129V52.78a23.082 23.082 0 0 0 8.317-3.447l5.103 5.102 6.455-6.453-5.107-5.082a23.115 23.115 0 0 0 3.448-8.316zm-29.999 6.542c-6.135 0-11.109-4.973-11.109-11.108 0-6.134 4.974-11.108 11.11-11.108 6.135 0 11.11 4.974 11.11 11.108a11.11 11.11 0 0 1-11.114 11.108h.003z" fill-opacity=".05"></path><path class="gear" d="M35.13 59.999H24.869v-7.181a23.113 23.113 0 0 1-7.38-3.057L12.41 54.84l-7.252-7.252 5.079-5.079a23.124 23.124 0 0 1-3.056-7.38H.002V24.873h7.181a23.112 23.112 0 0 1 3.056-7.376l-5.078-5.079 7.252-7.265 5.076 5.092a23.137 23.137 0 0 1 7.376-3.057V.004h10.259v7.181a23.112 23.112 0 0 1 7.376 3.056l5.087-5.087 7.252 7.253-5.079 5.079a23.158 23.158 0 0 1 3.056 7.376h7.182v10.261h-7.181a23.143 23.143 0 0 1-3.056 7.38l5.078 5.079-7.252 7.253-5.079-5.08a23.158 23.158 0 0 1-7.376 3.056V60zm-8.927-1.333h7.593v-6.934l.536-.108a21.817 21.817 0 0 0 7.882-3.271l.453-.302 4.908 4.903 5.367-5.368-4.904-4.903.303-.453a21.838 21.838 0 0 0 3.271-7.892l.107-.536h6.935v-7.593h-6.927l-.108-.536a21.803 21.803 0 0 0-3.271-7.892l-.302-.454 4.908-4.906-5.368-5.368-4.908 4.903-.453-.302a21.843 21.843 0 0 0-7.878-3.271l-.535-.108V1.341h-7.609v6.937l-.536.107a21.815 21.815 0 0 0-7.893 3.271l-.453.302-4.904-4.902-5.368 5.368 4.904 4.902-.302.454a21.823 21.823 0 0 0-3.272 7.892l-.108.536H1.334v7.593h6.933l.109.536a21.825 21.825 0 0 0 3.274 7.903l.303.454L7.045 47.6l5.368 5.368 4.908-4.903.453.302a21.836 21.836 0 0 0 7.893 3.271l.536.108zm3.794-17.142c-6.366 0-11.527-5.16-11.527-11.527S23.63 18.47 29.996 18.47s11.527 5.159 11.528 11.526c-.004 6.364-5.162 11.524-11.527 11.531v-.003zm0-21.728c-5.629 0-10.194 4.563-10.194 10.193 0 5.629 4.563 10.193 10.193 10.193S40.19 35.619 40.19 29.99c-.012-5.623-4.57-10.176-10.194-10.182z"></path><path d="M30.076 35.999a5.998 5.998 0 0 1-5.259-9.021A5.999 5.999 0 0 1 35.999 30a5.999 5.999 0 0 1-5.923 5.999zm0-10.645a4.657 4.657 0 1 0 0 9.314 4.657 4.657 0 0 0 0-9.314z"></path></g><g id="wheel_2" transform="translate(42 84)"><path class="gear" d="M60 34.565v-9.123h-7.218a23.08 23.08 0 0 0-3.448-8.316l5.103-5.102-6.455-6.453-5.107 5.102a23.09 23.09 0 0 0-8.317-3.446V.003h-9.121v7.216a23.082 23.082 0 0 0-8.317 3.447l-5.103-5.102-6.456 6.461 5.103 5.102a23.09 23.09 0 0 0-3.447 8.315H.003v9.123h7.214a23.068 23.068 0 0 0 3.448 8.315l-5.103 5.102 6.455 6.453 5.103-5.102a23.093 23.093 0 0 0 8.317 3.447v7.216h9.129V52.78a23.082 23.082 0 0 0 8.317-3.447l5.103 5.102 6.455-6.453-5.107-5.082a23.115 23.115 0 0 0 3.448-8.316zm-29.999 6.542c-6.135 0-11.109-4.973-11.109-11.108 0-6.134 4.974-11.108 11.11-11.108 6.135 0 11.11 4.974 11.11 11.108a11.11 11.11 0 0 1-11.114 11.108h.003z" fill-opacity=".1"></path><path class="gear" d="M35.13 59.999H24.869v-7.181a23.113 23.113 0 0 1-7.38-3.057L12.41 54.84l-7.252-7.252 5.079-5.079a23.124 23.124 0 0 1-3.056-7.38H.002V24.873h7.181a23.112 23.112 0 0 1 3.056-7.376l-5.078-5.079 7.252-7.265 5.076 5.092a23.137 23.137 0 0 1 7.376-3.057V.004h10.259v7.181a23.112 23.112 0 0 1 7.376 3.056l5.087-5.087 7.252 7.253-5.079 5.079a23.158 23.158 0 0 1 3.056 7.376h7.182v10.261h-7.181a23.143 23.143 0 0 1-3.056 7.38l5.078 5.079-7.252 7.253-5.079-5.08a23.158 23.158 0 0 1-7.376 3.056V60zm-8.927-1.333h7.593v-6.934l.536-.108a21.817 21.817 0 0 0 7.882-3.271l.453-.302 4.908 4.903 5.367-5.368-4.904-4.903.303-.453a21.838 21.838 0 0 0 3.271-7.892l.107-.536h6.935v-7.593h-6.927l-.108-.536a21.803 21.803 0 0 0-3.271-7.892l-.302-.454 4.908-4.906-5.368-5.368-4.908 4.903-.453-.302a21.843 21.843 0 0 0-7.878-3.271l-.535-.108V1.341h-7.609v6.937l-.536.107a21.815 21.815 0 0 0-7.893 3.271l-.453.302-4.904-4.902-5.368 5.368 4.904 4.902-.302.454a21.823 21.823 0 0 0-3.272 7.892l-.108.536H1.334v7.593h6.933l.109.536a21.825 21.825 0 0 0 3.274 7.903l.303.454L7.045 47.6l5.368 5.368 4.908-4.903.453.302a21.836 21.836 0 0 0 7.893 3.271l.536.108zm3.794-17.142c-6.366 0-11.527-5.16-11.527-11.527S23.63 18.47 29.996 18.47s11.527 5.159 11.528 11.526c-.004 6.364-5.162 11.524-11.527 11.531v-.003zm0-21.728c-5.629 0-10.194 4.563-10.194 10.193 0 5.629 4.563 10.193 10.193 10.193S40.19 35.619 40.19 29.99c-.012-5.623-4.57-10.176-10.194-10.182z"></path><path d="M30.076 35.999a5.998 5.998 0 0 1-5.259-9.021A5.999 5.999 0 0 1 35.999 30a5.999 5.999 0 0 1-5.923 5.999zm0-10.645a4.657 4.657 0 1 0 0 9.314 4.657 4.657 0 0 0 0-9.314z"></path></g><g id="wheel_3" transform="translate(84 42)"><path class="gear" d="M60 34.565v-9.123h-7.218a23.08 23.08 0 0 0-3.448-8.316l5.103-5.102-6.455-6.453-5.107 5.102a23.09 23.09 0 0 0-8.317-3.446V.003h-9.121v7.216a23.082 23.082 0 0 0-8.317 3.447l-5.103-5.102-6.456 6.461 5.103 5.102a23.09 23.09 0 0 0-3.447 8.315H.003v9.123h7.214a23.068 23.068 0 0 0 3.448 8.315l-5.103 5.102 6.455 6.453 5.103-5.102a23.093 23.093 0 0 0 8.317 3.447v7.216h9.129V52.78a23.082 23.082 0 0 0 8.317-3.447l5.103 5.102 6.455-6.453-5.107-5.082a23.115 23.115 0 0 0 3.448-8.316zm-29.999 6.542c-6.135 0-11.109-4.973-11.109-11.108 0-6.134 4.974-11.108 11.11-11.108 6.135 0 11.11 4.974 11.11 11.108a11.11 11.11 0 0 1-11.114 11.108h.003z" fill-opacity=".04"></path><path class="gear" d="M35.13 59.999H24.869v-7.181a23.113 23.113 0 0 1-7.38-3.057L12.41 54.84l-7.252-7.252 5.079-5.079a23.124 23.124 0 0 1-3.056-7.38H.002V24.873h7.181a23.112 23.112 0 0 1 3.056-7.376l-5.078-5.079 7.252-7.265 5.076 5.092a23.137 23.137 0 0 1 7.376-3.057V.004h10.259v7.181a23.112 23.112 0 0 1 7.376 3.056l5.087-5.087 7.252 7.253-5.079 5.079a23.158 23.158 0 0 1 3.056 7.376h7.182v10.261h-7.181a23.143 23.143 0 0 1-3.056 7.38l5.078 5.079-7.252 7.253-5.079-5.08a23.158 23.158 0 0 1-7.376 3.056V60zm-8.927-1.333h7.593v-6.934l.536-.108a21.817 21.817 0 0 0 7.882-3.271l.453-.302 4.908 4.903 5.367-5.368-4.904-4.903.303-.453a21.838 21.838 0 0 0 3.271-7.892l.107-.536h6.935v-7.593h-6.927l-.108-.536a21.803 21.803 0 0 0-3.271-7.892l-.302-.454 4.908-4.906-5.368-5.368-4.908 4.903-.453-.302a21.843 21.843 0 0 0-7.878-3.271l-.535-.108V1.341h-7.609v6.937l-.536.107a21.815 21.815 0 0 0-7.893 3.271l-.453.302-4.904-4.902-5.368 5.368 4.904 4.902-.302.454a21.823 21.823 0 0 0-3.272 7.892l-.108.536H1.334v7.593h6.933l.109.536a21.825 21.825 0 0 0 3.274 7.903l.303.454L7.045 47.6l5.368 5.368 4.908-4.903.453.302a21.836 21.836 0 0 0 7.893 3.271l.536.108zm3.794-17.142c-6.366 0-11.527-5.16-11.527-11.527S23.63 18.47 29.996 18.47s11.527 5.159 11.528 11.526c-.004 6.364-5.162 11.524-11.527 11.531v-.003zm0-21.728c-5.629 0-10.194 4.563-10.194 10.193 0 5.629 4.563 10.193 10.193 10.193S40.19 35.619 40.19 29.99c-.012-5.623-4.57-10.176-10.194-10.182z"></path><path d="M30.076 35.999a5.998 5.998 0 0 1-5.259-9.021A5.999 5.999 0 0 1 35.999 30a5.999 5.999 0 0 1-5.923 5.999zm0-10.645a4.657 4.657 0 1 0 0 9.314 4.657 4.657 0 0 0 0-9.314z"></path></g><g id="wheel_4" transform="translate(126)"><path class="gear" d="M14.823 51.636l2.299-2.298a23.135 23.135 0 0 0 8.318 3.448v7.213h9.13v-7.225a23.09 23.09 0 0 0 8.318-3.448l5.103 5.102 6.448-6.442-5.103-5.102a23.098 23.098 0 0 0 3.447-8.318h7.214v-9.131h-7.218a23.087 23.087 0 0 0-3.447-8.318l5.107-5.102-6.456-6.454-5.103 5.102a23.098 23.098 0 0 0-8.318-3.447V.003h-9.13v7.213a23.087 23.087 0 0 0-8.318 3.447l-5.103-5.102-6.455 6.456 5.103 5.102a23.095 23.095 0 0 0-3.448 8.317H.001v9.143h7.214a23.092 23.092 0 0 0 3.448 8.317L5.56 47.987l6.455 6.454 2.796-2.795.011-.007zM29.999 41.09c-6.137 0-11.111-4.973-11.111-11.11 0-6.135 4.974-11.109 11.111-11.109 6.136 0 11.111 4.972 11.111 11.109 0 6.136-4.975 11.11-11.111 11.11z" fill-opacity=".14"></path><path class="gear" d="M35.13 59.999H24.869v-7.181a23.113 23.113 0 0 1-7.38-3.057L12.41 54.84l-7.252-7.252 5.079-5.079a23.124 23.124 0 0 1-3.056-7.38H.002V24.873h7.181a23.112 23.112 0 0 1 3.056-7.376l-5.078-5.079 7.252-7.265 5.076 5.092a23.137 23.137 0 0 1 7.376-3.057V.004h10.259v7.181a23.112 23.112 0 0 1 7.376 3.056l5.087-5.087 7.252 7.253-5.079 5.079a23.158 23.158 0 0 1 3.056 7.376h7.182v10.261h-7.181a23.143 23.143 0 0 1-3.056 7.38l5.078 5.079-7.252 7.253-5.079-5.08a23.158 23.158 0 0 1-7.376 3.056V60zm-8.927-1.333h7.593v-6.934l.536-.108a21.817 21.817 0 0 0 7.882-3.271l.453-.302 4.908 4.903 5.367-5.368-4.904-4.903.303-.453a21.838 21.838 0 0 0 3.271-7.892l.107-.536h6.935v-7.593h-6.927l-.108-.536a21.803 21.803 0 0 0-3.271-7.892l-.302-.454 4.908-4.906-5.368-5.368-4.908 4.903-.453-.302a21.843 21.843 0 0 0-7.878-3.271l-.535-.108V1.341h-7.609v6.937l-.536.107a21.815 21.815 0 0 0-7.893 3.271l-.453.302-4.904-4.902-5.368 5.368 4.904 4.902-.302.454a21.823 21.823 0 0 0-3.272 7.892l-.108.536H1.334v7.593h6.933l.109.536a21.825 21.825 0 0 0 3.274 7.903l.303.454L7.045 47.6l5.368 5.368 4.908-4.903.453.302a21.836 21.836 0 0 0 7.893 3.271l.536.108zm3.794-17.142c-6.366 0-11.527-5.16-11.527-11.527S23.63 18.47 29.996 18.47s11.527 5.159 11.528 11.526c-.004 6.364-5.162 11.524-11.527 11.531v-.003zm0-21.728c-5.629 0-10.194 4.563-10.194 10.193 0 5.629 4.563 10.193 10.193 10.193S40.19 35.619 40.19 29.99c-.012-5.623-4.57-10.176-10.194-10.182z"></path><path d="M30.076 35.999a5.998 5.998 0 0 1-5.259-9.021A5.999 5.999 0 0 1 35.999 30a5.999 5.999 0 0 1-5.923 5.999zm0-10.645a4.657 4.657 0 1 0 0 9.314 4.657 4.657 0 0 0 0-9.314z"></path></g></g></svg>